<svg xmlns="http://www.w3.org/2000/svg" xmlns:xlink="http://www.w3.org/1999/xlink" width="36" height="36" viewBox="0 0 36 36">
    <defs>
        <path id="a" d="M0 0h20.806v31.918H0z"/>
    </defs>
    <g fill="none" fill-rule="evenodd" transform="translate(7 2)">
        <mask id="b" fill="#fff">
            <use xlink:href="#a"/>
        </mask>
        <path fill="#464250" d="M10.403 27.743l-4.462-3.44c1.606-1.561 2.127-3.131 2.284-4.162.685.345 1.417.544 2.178.544.767 0 1.5-.192 2.182-.525.162 1.027.69 2.583 2.286 4.137l-4.468 3.446zm2.365-9.174c-.714.541-1.519.854-2.365.854-2.763 0-5.187-3.48-5.187-7.45 0-.12.004-.24.013-.36 3.33.297 6.406-1.511 7.472-4.287a5.192 5.192 0 0 1 2.89 4.647c0 2.803-1.144 5.299-2.784 6.568l-.04.028zM1.26 14.512c0-7.307 4.102-13.251 9.143-13.251 5.042 0 9.143 5.944 9.143 13.25 0 3.58-.976 6.937-2.747 9.454a.625.625 0 0 0-.101.238c-2.658-1.99-2.92-4.108-2.922-4.818 1.841-1.536 3.076-4.28 3.076-7.412a6.454 6.454 0 0 0-4.336-6.088.634.634 0 0 0-.818.441c-.595 2.352-3.013 4.059-5.75 4.059a6.77 6.77 0 0 1-1.151-.101.633.633 0 0 0-.73.506 6.436 6.436 0 0 0-.112 1.183c0 3.063 1.247 5.812 3.076 7.37.007.667-.208 2.82-2.87 4.828-1.842-2.503-2.9-6.015-2.9-9.66zM17.91 25.003c-.088-.051-.163-.104-.248-.154a.622.622 0 0 0 .168-.158c1.92-2.728 2.977-6.342 2.977-10.18 0-8-4.666-14.51-10.403-14.51C4.667 0 0 6.51 0 14.51c0 3.945 1.109 7.615 3.115 10.361-.059.035-.11.072-.171.107C2.824 25.035 0 26.417 0 31.287a.63.63 0 1 0 1.26 0c0-4.023 2.133-5.125 2.264-5.191a13.12 13.12 0 0 0 1.436-.96l5.058 3.903a.631.631 0 0 0 .77 0l5.063-3.905c.437.333.918.665 1.476.985.022.01 2.219 1.09 2.219 5.168a.63.63 0 1 0 1.26 0c0-4.87-2.822-6.252-2.897-6.284z" mask="url(#b)"/>
    </g>
</svg>
