<svg xmlns="http://www.w3.org/2000/svg" xmlns:xlink="http://www.w3.org/1999/xlink" width="36" height="36" viewBox="0 0 36 36">
    <defs>
        <path id="a" d="M0 .285H26.64v26.638H0z"/>
    </defs>
    <g fill="none" fill-rule="evenodd">
        <path fill="#464250" d="M10.91 10.987a.755.755 0 0 0 1.066 1.067 5.927 5.927 0 0 1 8.37 0 .75.75 0 0 0 1.066 0 .755.755 0 0 0 0-1.067c-2.896-2.894-7.608-2.894-10.503 0"/>
        <g transform="translate(5 4.792)">
            <mask id="b" fill="#fff">
                <use xlink:href="#a"/>
            </mask>
            <path fill="#464250" d="M24.78 25.066a1.201 1.201 0 0 1-1.696 0l-4.927-4.927c.31-.249.609-.515.895-.8.286-.286.55-.586.8-.895l4.928 4.926c.226.226.351.527.351.848 0 .32-.125.622-.35.848M4.334 18.272a9.585 9.585 0 0 1-2.827-6.825 9.586 9.586 0 0 1 2.827-6.825 9.586 9.586 0 0 1 6.825-2.828 9.584 9.584 0 0 1 6.826 2.828 9.586 9.586 0 0 1 2.827 6.825 9.585 9.585 0 0 1-2.827 6.825c-3.763 3.763-9.886 3.764-13.651 0m21.511 4.032l-5.121-5.122a11.08 11.08 0 0 0 1.596-5.735c0-2.982-1.16-5.785-3.269-7.893A11.083 11.083 0 0 0 11.16.284c-2.98 0-5.784 1.162-7.891 3.27A11.085 11.085 0 0 0 0 11.447c0 2.981 1.16 5.784 3.269 7.892a11.148 11.148 0 0 0 13.625 1.668l5.124 5.125c.528.527 1.22.792 1.914.792a2.7 2.7 0 0 0 1.913-.792c.512-.51.794-1.19.794-1.914 0-.723-.282-1.403-.793-1.914" mask="url(#b)"/>
        </g>
    </g>
</svg>
